HIERARCHY
ROOT Hips
{
	OFFSET 0.00 0.00 0.00
	CHANNELS 6 Xposition Yposition Zposition Yrotation Xrotation Zrotation
	JOINT LHipJoint
	{
		OFFSET	0.0000	0.0000	0.0000
		CHANNELS 3 Yrotation Xrotation Zrotation
		JOINT LeftUpLeg
		{
			OFFSET	1.0138	-0.0809	-0.0827
			CHANNELS 3 Yrotation Xrotation Zrotation
			JOINT LeftLeg
			{
				OFFSET	0.4110	-3.9095	0.3245
				CHANNELS 3 Yrotation Xrotation Zrotation
				JOINT LeftFoot
				{
					OFFSET	0.3810	-4.0555	-0.1470
					CHANNELS 3 Yrotation Xrotation Zrotation
					JOINT LeftToeBase
					{
						OFFSET	0.1396	-0.4462	1.3079
						CHANNELS 3 Yrotation Xrotation Zrotation
						End Site
						{
							OFFSET 0.0161 -0.0248 0.1809
						}
					}
				}
			}
		}
	}
	JOINT LowerBack
	{
		OFFSET	0.0000	0.7977	-0.3873
		CHANNELS 3 Yrotation Xrotation Zrotation
		JOINT Spine
		{
			OFFSET	0.0000	1.4131	0.1715
			CHANNELS 3 Yrotation Xrotation Zrotation
			JOINT Spine1
			{
				OFFSET	0.0000	1.4392	-0.1032
				CHANNELS 3 Yrotation Xrotation Zrotation
				JOINT LeftShoulder
				{
					OFFSET	0.2274	1.0382	0.4032
					CHANNELS 3 Yrotation Xrotation Zrotation
					JOINT LeftArm
					{
						OFFSET	1.4730	-0.2267	-0.0231
						CHANNELS 3 Yrotation Xrotation Zrotation
						JOINT LeftForeArm
						{
							OFFSET	1.6131	-1.8059	0.0081
							CHANNELS 3 Yrotation Xrotation Zrotation
							JOINT LeftHand
							{
								OFFSET	1.2197	-1.2423	1.6317
								CHANNELS 3 Yrotation Xrotation Zrotation
								JOINT LThumb
								{
									OFFSET	0.0109	-0.0753	0.4387
									CHANNELS 3 Yrotation Xrotation Zrotation
									End Site
									{
										OFFSET -0.2090 -0.0868 0.2097
									}
								}
								JOINT LeftFingerBase
								{
									OFFSET	0.1071	-0.1567	0.2607
									CHANNELS 3 Yrotation Xrotation Zrotation
									JOINT LeftHandFinger1
									{
										OFFSET	0.1706	-0.2492	0.6830
										CHANNELS 3 Yrotation Xrotation Zrotation
										End Site
										{
											OFFSET 0.0335 -0.1507 0.2071
										}
									}
								}
							}
						}
					}
				}
				JOINT Neck
				{
					OFFSET	0.0000	1.7498	0.2381
					CHANNELS 3 Yrotation Xrotation Zrotation
					JOINT Neck1
					{
						OFFSET	0.0000	0.5043	0.1959
						CHANNELS 3 Yrotation Xrotation Zrotation
						JOINT Head
						{
							OFFSET	0.0000	0.5044	0.1959
							CHANNELS 3 Yrotation Xrotation Zrotation
							End Site
							{
								OFFSET 0.0000 1.4798 -0.0693
							}
						}
					}
				}
				JOINT RightShoulder
				{
					OFFSET	-0.2274	1.0382	0.4032
					CHANNELS 3 Yrotation Xrotation Zrotation
					JOINT RightArm
					{
						OFFSET	-1.4730	-0.2267	-0.0231
						CHANNELS 3 Yrotation Xrotation Zrotation
						JOINT RightForeArm
						{
							OFFSET	-1.6131	-1.8059	0.0081
							CHANNELS 3 Yrotation Xrotation Zrotation
							JOINT RightHand
							{
								OFFSET	-1.2197	-1.2423	1.6317
								CHANNELS 3 Yrotation Xrotation Zrotation
								JOINT RThumb
								{
									OFFSET	-0.0109	-0.0753	0.4387
									CHANNELS 3 Yrotation Xrotation Zrotation
									End Site
									{
										OFFSET 0.2090 -0.0868 0.2097
									}
								}
								JOINT RightFingerBase
								{
									OFFSET	-0.1071	-0.1567	0.2607
									CHANNELS 3 Yrotation Xrotation Zrotation
									JOINT RightHandFinger1
									{
										OFFSET	-0.1706	-0.2492	0.6830
										CHANNELS 3 Yrotation Xrotation Zrotation
										End Site
										{
											OFFSET -0.0335 -0.1507 0.2071
										}
									}
								}
							}
						}
					}
				}
			}
		}
	}
	JOINT RHipJoint
	{
		OFFSET	0.0000	0.0000	0.0000
		CHANNELS 3 Yrotation Xrotation Zrotation
		JOINT RightUpLeg
		{
			OFFSET	-1.0138	-0.0809	-0.0827
			CHANNELS 3 Yrotation Xrotation Zrotation
			JOINT RightLeg
			{
				OFFSET	-0.4110	-3.9095	0.3245
				CHANNELS 3 Yrotation Xrotation Zrotation
				JOINT RightFoot
				{
					OFFSET	-0.3810	-4.0555	-0.1470
					CHANNELS 3 Yrotation Xrotation Zrotation
					JOINT RightToeBase
					{
						OFFSET	-0.1396	-0.4462	1.3079
						CHANNELS 3 Yrotation Xrotation Zrotation
						End Site
						{
							OFFSET -0.0161 -0.0248 0.1809
						}
					}
				}
			}
		}
	}
}
MOTION
Frames: 6
Frame Time: 0.0333333
-0.0151 8.4598 0.0874 -4.9497 -5.6534 0.6069 0.0000 -0.0000 0.0000 14.3574 0.2585 -0.7122 -2.5212 23.7752 -0.5103 -1.1206 -18.3116 2.1231 0.0000 -0.0001 -0.0000 0.0000 -0.0000 0.0000 -0.5939 2.2749 -1.0937 -1.2252 4.5375 -2.2483 -5.9213 0.7717 8.3241 12.3449 -9.2057 -38.8769 26.7364 27.7813 4.4906 4.9817 13.7490 -9.1163 27.7920 1.9301 25.3257 -10.7327 23.4100 -14.4304 -11.9982 2.3085 -7.2311 0.4686 5.7355 2.5081 0.4686 5.7356 2.5081 4.1243 -20.6276 -1.3369 5.4770 0.6240 -1.8521 8.7342 4.7596 32.3623 -12.4680 14.7297 0.4836 -12.4139 7.7463 11.5418 -27.2648 3.5296 -19.6416 7.2363 13.7443 9.5345 6.4388 -3.4334 2.6071 0.0000 -0.0000 0.0000 -9.7220 -1.6219 -2.6247 -0.5952 23.6582 -0.7912 0.3174 -16.5701 1.6504 0.0000 -0.0001 0.0000 
-0.0152 8.4595 0.0876 -4.9492 -5.6376 0.6031 0.0000 -0.0000 0.0000 14.3552 0.2340 -0.7117 -2.5166 23.7940 -0.5097 -1.1213 -18.3223 2.1220 0.0000 -0.0001 0.0000 0.0000 -0.0000 0.0000 -0.5956 2.2850 -1.0918 -1.2289 4.5576 -2.2449 -5.9510 0.7741 8.3260 12.3596 -9.1808 -38.8826 26.7046 27.7562 4.4762 4.9902 13.7361 -9.1408 27.7490 1.9130 25.3201 -10.7308 23.4016 -14.4275 -11.9911 2.3018 -7.2252 0.4700 5.7375 2.5082 0.4700 5.7376 2.5083 4.1166 -20.6920 -1.3100 5.4926 0.6242 -1.8449 8.6806 4.7702 32.3424 -12.4487 14.7098 0.4881 -12.4322 7.7394 11.5483 -27.2623 3.5324 -19.6451 7.2440 13.7605 9.5453 6.4389 -3.4333 2.6071 0.0000 -0.0000 0.0000 -9.7052 -1.6395 -2.6103 -0.6167 23.6699 -0.8097 0.3160 -16.5785 1.6594 -0.0000 -0.0001 -0.0000 
-0.0152 8.4591 0.0876 -4.9497 -5.6174 0.6009 0.0000 -0.0000 0.0000 14.3502 0.2032 -0.7156 -2.5073 23.8166 -0.5076 -1.1222 -18.3343 2.1214 0.0000 -0.0001 -0.0000 0.0000 -0.0000 0.0000 -0.5977 2.2940 -1.0908 -1.2332 4.5756 -2.2433 -5.9740 0.7757 8.3253 12.3944 -9.1678 -38.8901 26.6880 27.7431 4.4688 4.9808 13.7351 -9.1372 27.7226 1.8944 25.3283 -10.7323 23.3965 -14.4279 -11.9834 2.2943 -7.2186 0.4721 5.7434 2.5042 0.4721 5.7435 2.5042 4.1106 -20.7628 -1.2887 5.5083 0.6243 -1.8386 8.6252 4.7685 32.3185 -12.4398 14.7007 0.4902 -12.4400 7.7321 11.5603 -27.2574 3.5356 -19.6465 7.2398 13.7725 9.5461 6.4406 -3.4313 2.6085 0.0000 -0.0000 0.0000 -9.6907 -1.6659 -2.5998 -0.6324 23.6865 -0.8224 0.3148 -16.5877 1.6663 -0.0000 -0.0001 0.0000 
-0.0149 8.4588 0.0876 -4.9498 -5.5947 0.6010 0.0000 -0.0000 0.0000 14.3421 0.1733 -0.7250 -2.4922 23.8333 -0.5025 -1.1231 -18.3430 2.1209 -0.0000 -0.0001 0.0000 0.0000 -0.0000 0.0000 -0.6005 2.3038 -1.0909 -1.2390 4.5951 -2.2441 -5.9935 0.7769 8.3095 12.4438 -9.1626 -38.8856 26.6765 27.7340 4.4636 4.9643 13.7459 -9.1247 27.7407 1.8820 25.3593 -10.7408 23.3995 -14.4351 -11.9800 2.2912 -7.2158 0.4721 5.7543 2.4994 0.4722 5.7542 2.4994 4.1092 -20.8408 -1.2982 5.5281 0.6246 -1.8271 8.5589 4.7625 32.2827 -12.4264 14.6870 0.4933 -12.4482 7.7289 11.5771 -27.2442 3.5380 -19.6468 7.2182 13.7689 9.5296 6.4443 -3.4272 2.6116 0.0000 -0.0000 0.0000 -9.6787 -1.6953 -2.5935 -0.6455 23.7010 -0.8331 0.3133 -16.5949 1.6737 0.0000 -0.0001 -0.0000 
-0.0145 8.4585 0.0876 -4.9504 -5.5728 0.6014 0.0000 -0.0000 0.0000 14.3329 0.1477 -0.7368 -2.4718 23.8441 -0.4939 -1.1238 -18.3494 2.1199 0.0000 -0.0001 0.0000 0.0000 -0.0000 0.0000 -0.6034 2.3164 -1.0921 -1.2451 4.6203 -2.2470 -6.0207 0.7782 8.2834 12.4925 -9.1539 -38.8681 26.6556 27.7174 4.4542 4.9602 13.7568 -9.1333 27.8053 1.8828 25.4042 -10.7572 23.4132 -14.4505 -11.9838 2.2947 -7.2189 0.4705 5.7683 2.4993 0.4704 5.7684 2.4993 4.1197 -20.9230 -1.3433 5.5528 0.6245 -1.8100 8.4833 4.7653 32.2348 -12.3877 14.6472 0.5024 -12.4812 7.7315 11.6022 -27.2196 3.5383 -19.6480 7.1885 13.7452 9.5011 6.4489 -3.4220 2.6153 0.0000 -0.0000 0.0000 -9.6643 -1.7198 -2.5858 -0.6620 23.7076 -0.8504 0.3109 -16.5981 1.6858 -0.0000 -0.0001 -0.0000 
-0.0140 8.4583 0.0876 -4.9515 -5.5503 0.6006 0.0000 -0.0000 0.0000 14.3233 0.1211 -0.7486 -2.4524 23.8557 -0.4851 -1.1246 -18.3564 2.1196 0.0000 -0.0001 -0.0000 0.0000 -0.0000 0.0000 -0.6053 2.3322 -1.0937 -1.2493 4.6517 -2.2509 -6.0533 0.7804 8.2741 12.5325 -9.1519 -38.8594 26.6548 27.7168 4.4539 4.9529 13.7534 -9.1548 27.8992 1.9015 25.4411 -10.7813 23.4390 -14.4742 -11.9939 2.3045 -7.2276 0.4691 5.7838 2.5032 0.4691 5.7840 2.5032 4.1402 -21.0102 -1.4019 5.5700 0.6245 -1.7962 8.4238 4.7820 32.1812 -12.3200 14.5775 0.5182 -12.5423 7.7306 11.6361 -27.1906 3.5333 -19.6543 7.1555 13.6856 9.4591 6.4519 -3.4186 2.6178 0.0000 -0.0000 0.0000 -9.6492 -1.7443 -2.5771 -0.6774 23.7130 -0.8682 0.3083 -16.6005 1.6989 0.0000 -0.0001 -0.0000 
